<svg id="Layer_1" data-name="Layer 1" xmlns="http://www.w3.org/2000/svg" viewBox="0 0 922.36 681.04"><defs><style>.cls-1{fill:#1d1b1b;}.cls-2{fill:#262323;}.cls-3{fill:#fefefe;}</style></defs><title>Untitled-1</title><path class="cls-1" d="M370.05,178.79c15.23-11.8,31.53-14.44,49-11.28,21,3.82,36.33,20.85,37.06,42.89.85,25.62.38,51.28.59,76.92,0,2.49-.87,3-3.16,3-12.16-.1-24.32-.2-36.48,0-3.65.07-3.47-1.79-3.47-4.28,0-20.32.19-40.64-.2-61-.28-14.87-6.88-22-19.31-22.09-13.32-.11-23.18,8.69-23.65,22.4-.6,17.14-.23,34.3-.37,51.46,0,4.28,1.83,9.84-.75,12.52s-8.19.76-12.46.82c-8.66.13-17.32-.06-26,.09-3,.06-4.35-.33-4.34-3.94q.19-79.44,0-158.9c0-3.19.75-4.29,4.14-4.22,11.49.21,23,.24,34.47,0,3.86-.09,5.09.85,5,4.9-.26,15-.1,30-.1,45Z" transform="translate(-74 -109.48)"/><path class="cls-1" d="M844.12,290.27c-14.81,0-28.75-.4-42.65.17-7,.28-11.45-1.78-15.61-7.57-7.85-10.93-16.79-21.07-25.06-31.71-2.11-2.71-3.06-2.23-5.56-.32-7.54,5.79-10.6,12.94-9.3,22.4.63,4.58,0,9.32.16,14,.08,2.43-.76,3.11-3.14,3.1-12.33-.1-24.66-.2-37,0-3.73.07-3.42-1.91-3.42-4.33q0-47.49,0-95c0-21,.08-42-.08-63,0-3.54.6-4.94,4.57-4.83q17.23.44,34.49,0c4-.11,4.58,1.29,4.56,4.83-.14,25.33-.07,50.66-.07,76v6c6.05-5.78,11.42-10.83,16.7-16,7.88-7.67,15.68-15.42,23.55-23.09,1.14-1.11,2-2.67,4-2.66,16.24,0,32.49,0,50.05,0-7.28,7.51-13.69,14.13-20.11,20.74-9.28,9.55-18.47,19.2-27.93,28.58-2.57,2.55-2,4.05-.06,6.51,15.85,19.94,31.56,40,47.31,60C840.92,285.94,842.23,287.76,844.12,290.27Z" transform="translate(-74 -109.48)"/><path class="cls-1" d="M590.05,180.8c15.57-13.61,32.73-16.72,51.27-13.21,20.83,3.94,35.46,20.23,36.74,42.14,1.52,25.94.3,52,.59,77.92,0,2.39-1,2.66-3,2.65-12.32-.06-24.65-.15-37,.05-3.51,0-3.13-1.9-3.12-4.11q0-28,0-56a66.2,66.2,0,0,0-.43-10c-1.5-9.65-6.69-15.58-14.45-17-10.59-1.9-20.66,2.48-25.2,11C592.76,219.49,592,225,592,230.76c.05,18.33-.1,36.65.12,55,0,3.8-1,4.72-4.7,4.63-11.65-.25-23.32-.18-35,0-3,0-4-.6-4-3.8q.18-57.22,0-114.44c0-3.2,1.11-3.85,4-3.81,11,.15,22,.25,33,0,3.91-.11,5,1.19,4.57,4.8A74.72,74.72,0,0,0,590.05,180.8Z" transform="translate(-74 -109.48)"/><path class="cls-1" d="M227.58,228.71c0-6.83-.1-13.66,0-20.49.05-2.42-.7-3.19-3.1-3.08-3.65.18-7.33-.07-11,.09-2.41.11-3.63-.33-3.57-3.19.17-8.66.13-17.33,0-26,0-2.37.67-3.24,3.09-3.12,3.49.18,7-.2,10.49.12s4.16-1.14,4.08-4.28c-.19-8,.07-16-.13-24-.07-2.92.91-3.61,3.69-3.58,12,.14,24,.16,36,0,3,0,4,.68,3.94,3.85-.24,7.83.07,15.67-.15,23.49-.1,3.37.7,4.7,4.35,4.53,6.65-.3,13.33,0,20-.14,2.66-.07,3.38.79,3.34,3.39-.15,8.49-.19,17,0,25.49.07,3.1-1.24,3.49-3.84,3.44-6.83-.14-13.67.13-20.49-.13C271.1,205,271,206.5,271,209c.09,12.17,0,24.33.05,36.49.07,11.34,8.87,17,20.14,12.08,5.35-2.34,6.28-.76,7.62,3.8,2.1,7.14,4.87,14.08,7.43,21.08.67,1.83,1.14,3.19-1.2,4.41-16.09,8.35-51.25,8.71-66.08-7.5-8.55-9.35-10.93-20.61-11.35-32.62C227.41,240.72,227.58,234.71,227.58,228.71Z" transform="translate(-74 -109.48)"/><path class="cls-2" d="M306.35,471c5.75,8.93,13.32,12.27,21.94,13.42,13.94,1.87,27.21.09,38.88-9.1,2.54-2,4.64-.87,6.66,1,7.76,7.21,15.5,14.45,23.3,21.6,3.26,3,2.73,5.55-.3,8.27a70.62,70.62,0,0,1-33.37,16.72c-26.52,5.55-52.51,4.44-77.59-7.5-24.08-11.47-39.32-35-38.3-60.85,1.05-26.67,14.24-45.56,36.38-56.87,29.29-15,59.42-15.29,89.13-1.28,26.56,12.53,39.51,37.89,36.51,68.43-.48,4.87-2.32,6.24-6.61,6.22-27.49-.12-55-.06-82.48-.06Zm85.58,30.93c-6.7-6.23-13.21-12-19.37-18.19-2.25-2.26-3.79-1.64-5.91-.32-15.25,9.46-31.36,10.62-48,5.24-8.66-2.79-15.35-8.32-19.09-17.26-1.87-4.48-.5-6.65,4.07-7,1.16-.09,2.33,0,3.5,0,30.65,0,61.31-.07,92,.1,3.45,0,4.38-1,4.62-4.56,1.32-20.65-5.82-37.28-21.11-49.81-29.33-24-81.71-22.38-109.81,3.18a57.52,57.52,0,0,0-12.1,70.28c8.12,14.82,20.85,23.89,35.88,29.48,19.43,7.22,39.4,7.86,59.56,4.79C369.13,515.82,381.17,511.14,391.93,501.91Z" transform="translate(-74 -109.48)"/><path class="cls-2" d="M505.93,526.92c-22.91-.14-41.56-4.26-58.49-15.23-31.74-20.54-39.88-61.33-18.13-92.19,10.48-14.87,25.31-23.09,41.95-27.62,25.14-6.83,50-6.67,74.14,4.71,11.18,5.28,20.4,13.2,26.38,24.84,2.82,5.5,2.49,6.49-2.92,8.95-11,5-22,9.76-32.8,15.05-4.13,2-6.5,1.46-9-2.59-9.83-15.89-30.43-15.24-41-8.46-9.4,6-12.47,15.19-11.34,26.19,1.17,11.42,8,19.65,18.16,22.63,14.16,4.13,26.12-.09,34.75-12.59,2.19-3.17,4.25-3.66,7.59-2.08,11,5.21,22.19,10.1,33.27,15.18,6,2.74,6.24,4.15,2.75,10.29-9.39,16.47-24.07,24.75-40.92,29.48C521.28,526,512,527.2,505.93,526.92Zm60.33-102.34a49.46,49.46,0,0,0-24.66-22.64c-25.77-11.16-51.86-10.39-77.8-.65-13.66,5.13-25.14,13.81-32.78,27.11a57.5,57.5,0,0,0,19.67,77.66c25.32,15.72,52.4,17.7,80.38,10.33a56.76,56.76,0,0,0,33.12-22.88c1.56-2.23,2.29-3.78-1.16-5.23-9.21-3.89-18.27-8.18-27.34-12.44-1.9-.89-3.05-1.08-4.54,1-8.57,11.7-20.25,15.21-33.67,13.94-13.15-1.24-24.74-10.89-28-23.42-3.74-14.45.55-28.93,10.94-36.95,15.06-11.62,37.58-9,49.69,6,2,2.49,3.36,3.24,6.48,1.71C546.21,433.37,556.05,429.18,566.26,424.58Z" transform="translate(-74 -109.48)"/><path class="cls-2" d="M185.19,396.38q0-23.6,0-47.05c0-7.07,0-7.1,6.56-7.1,14.67,0,29.34.17,44-.11,4.64-.09,6.23,1.74,6.22,6.39q-.08,85,0,170.1c0,4.58-1.9,6.19-6.1,6.14-13.33-.15-26.67,0-40,0-8,0-8,0-8.79-7.69-30.49,15.27-60.24,14-88.07-6.56-33.87-25.05-33.2-83.26,1.12-107.63C126.8,383.9,155.24,382.72,185.19,396.38Zm50.29,37.46c0-26.83-.07-53.66.08-80.49,0-3.57-.64-4.81-4.27-4.73-12,.26-24,.23-36,0-3.27-.06-4.14.88-4.1,4.34.19,15.18.08,30.36.08,45.54a31.36,31.36,0,0,1-.07,4.23c-.6,4.28-2.84,5.25-6.16,2.83a52.74,52.74,0,0,0-7.09-4.86c-18.81-9.43-38.24-8.77-57.28-1.88-48.26,17.45-50.8,77-21.28,103.67,13.66,12.36,29.75,17.48,47.33,17.79,13.45.23,26.55-1.55,37.85-10.48,2.16-1.7,4.08-5.33,7.09-3.92,3.35,1.57,2.05,5.65,1.9,8.61-.18,3.63,1.37,3.88,4.11,3.85,11.16-.13,22.32-.21,33.48,0,3.46.07,4.41-.84,4.39-4.6C235.4,487.15,235.48,460.49,235.48,433.84Z" transform="translate(-74 -109.48)"/><path class="cls-2" d="M892.4,471.77c6.24,9.49,14.41,12.76,23.61,13.68,13.41,1.34,26.24-.37,37.44-9.27,2.5-2,4.65-1,6.71.91q11.63,10.83,23.29,21.62c3.17,3,2.68,5.6-.36,8.31a72.57,72.57,0,0,1-34.39,17c-25.36,5.21-50.34,4.2-74.36-6.74-19.46-8.87-33.62-23.28-38.86-45.73A64.55,64.55,0,0,1,860,404.88c18.84-13.8,40-18.4,62.48-17.15,19.92,1.11,38.35,6.81,53.62,21,16.45,15.29,22.06,35,19.81,57.64-.42,4.18-2,5.5-6,5.48-30.49-.17-61-.09-91.49-.09Zm85.74,31c-7-6.51-13.86-12.88-20.67-19.33-1.64-1.55-2.77-.21-3.93.53-12.38,7.88-25.79,10.06-39.87,7.76-11-1.81-20.88-6-26.65-17.1-3.77-7.28-2.6-9.32,5.3-9.32,30.83,0,61.66-.1,92.49.11,3.92,0,5.13-1.29,5.3-5.14,1-23.77-8.19-42.34-27.44-53.65-30-17.64-61.22-17.36-91.71-1.13-25.13,13.38-36.4,41-28.59,67.81,5.91,20.3,20.19,32.17,38.11,39.6,18.87,7.83,38.57,8.78,58.44,6.3C953.12,517.45,966.45,512.87,978.14,502.79Z" transform="translate(-74 -109.48)"/><path class="cls-2" d="M766.35,397c0-16.49.11-32.2-.07-47.91-.06-4.9,1.35-7,6.28-6.93q22.25.36,44.49,0c4.54-.07,6.23,1.7,6.23,6.46q-.12,85,0,170.07c0,4.31-1.64,6.07-5.65,6.05-14.49-.08-29-.17-43.49,0-5.54.07-5.36-4-5.74-8.49a59.23,59.23,0,0,1-27.78,10c-27.9,2.49-53.16-3.57-71.8-27.64-25.45-32.87-13.71-84.79,23-102.37,22-10.53,44.44-12.2,67.24-3C761.29,394.22,763.43,395.51,766.35,397Zm50.58,36.44c0-26.67-.06-53.34.07-80,0-3.49-.5-4.89-4.22-4.8-12,.27-24,.25-36,0-3.57-.08-4.41,1-4.36,4.7.2,15.54.12,31.09,0,46.63,0,2.34,1,5.4-1.55,6.75s-4.29-1-6.14-2.46a35,35,0,0,0-10-5.77c-20.5-7.27-40.75-6.08-60.16,3.57-41.19,20.48-41.14,75-14.9,99.54,13.36,12.48,29.14,18.05,46.55,18.65,15.56.54,30.6-1.49,42.88-13.29,2.88-2.76,4.88-1.36,5.76,2.15a12.75,12.75,0,0,1,.2,4.73c-.54,3.82.95,4.64,4.37,4.56,11-.24,22-.3,33,0,3.9.12,4.57-1.17,4.55-5C816.85,486.77,816.93,460.09,816.93,433.42Z" transform="translate(-74 -109.48)"/><path class="cls-2" d="M751.94,612.92H798.7a31,31,0,0,1,4.73.1c3.26.52,6.52,1.58,6.46,5.6-.07,4.48-3.73,3.75-6.61,3.74q-27-.15-54-.39c-2.86,0-5.08.12-6.84,3.14-25.85,44.35-49.69,89.73-70.52,136.66a79.94,79.94,0,0,0-5.9,20.36,19.93,19.93,0,0,1-1.5,5.08,5.38,5.38,0,0,1-5.8,3.26c-2.63-.32-4-2.4-4.34-5a32.18,32.18,0,0,1,1.9-14.52c8.17-23.13,19.42-44.86,30.48-66.66,13.29-26.22,27.17-52.13,42-77.5,2.57-4.4,1.93-5.43-3.08-5.48-24.71-.22-49.4-.94-74.11-.15-5.13.17-10.15,1.74-15.33,1.21-3.25-.33-6.7-.83-7-4.9s3.15-4.32,6.14-4.81a166.72,166.72,0,0,1,25.34-2.12c23.92-.3,47.83.15,71.73,1.13,3.63.15,5.6-1,7.48-4.15,8-13.37,15.82-26.91,26-38.83,4.88-5.72,9.69-5.83,13.9-.74,2.86,3.45,3.19,6.83-1,9.45-13,8.07-19.09,21.63-27.56,33.3Z" transform="translate(-74 -109.48)"/><path class="cls-1" d="M606.73,693.83c-4.08,2.68-7.64,5-11.18,7.34-11.84,7.84-23.07,16.66-36,22.77-7.9,3.75-16,6.72-25.07,4.1-8.2-2.38-12.08-9.12-10-17.32a33.46,33.46,0,0,1,7-13.55c15.83-18.37,34.66-32.78,57.15-42.1a41,41,0,0,1,22-3c7.25,1.08,12.91,5.82,14.15,11.73.84,4-1,6.38-4.61,7.7-3.42,1.24-6.83.82-7.9-2.79-1.88-6.4-6.52-6-11.3-5.46A47.92,47.92,0,0,0,587,667.39a122.91,122.91,0,0,0-39.65,28.51A43.85,43.85,0,0,0,539,707.38c-1.11,2.43-3.15,5.08-1.23,7.71,2.16,3,5.65,2.37,8.75,1.8,8.31-1.55,15.49-5.77,22.48-10.21,14.32-9.1,28.47-18.46,42.74-27.66A52.57,52.57,0,0,1,619,675.1c3-1.32,6.22-2.05,8.78.69,2.73,2.93,2,6.38.06,9.3-3.71,5.47-6.48,11.19-7.36,17.84-.57,4.3-2.69,9.87.23,12.44s7.75-1.11,11.43-2.76c22.73-10.23,44-23,64.92-36.54,2.48-1.6,4.84-3.46,7.88-3.93,1.81-.28,3.68-.34,4.71,1.51s.36,3.83-1.07,5.39a9.79,9.79,0,0,1-1.84,1.48C682,697,656.86,713.05,629.5,725.15l-.55.22c-16.84,6.81-25.13.4-22.89-17.78A59.34,59.34,0,0,0,606.73,693.83Z" transform="translate(-74 -109.48)"/><path class="cls-1" d="M455.26,722.56c18.14-1.41,31.91-6.66,45.31-12.93,20.64-9.64,39.6-22,57.57-36,2.63-2,5.13-4.34,8.31-5.59a3.93,3.93,0,0,1,4.82,1.11c1.39,1.63.94,3.32-.22,4.86a17.42,17.42,0,0,1-2.33,2.66c-27.94,24.32-58.33,44.39-94.6,54.16a79.1,79.1,0,0,1-17.47,2.81c-16.15.65-24.81-11-20-26.49,2.31-7.4,6.83-13.38,12.12-18.69A212.37,212.37,0,0,1,493,653.9c7.24-4.19,15-7.15,23.66-5.44s12,8.49,7.63,16.32a40.4,40.4,0,0,1-11.12,12.16c-16.5,12.65-34.74,20.88-55.87,21.39a5.86,5.86,0,0,0-5.64,3.33c-1,1.91-2.14,3.78-3.05,5.75C444.4,716.47,447.2,723.56,455.26,722.56Zm11.55-36.31c16.32-2.84,31.11-8.89,42.33-21.83,1.31-1.51,2.9-3.71,1.89-5.22-1.28-1.92-3.6-.16-5.24.57C491.33,666.26,478.66,675.45,466.81,686.25Z" transform="translate(-74 -109.48)"/><path class="cls-1" d="M728.11,727.3c18.1-1.4,31.86-6.65,45.27-12.91,20.64-9.65,39.59-22,57.56-36,2.64-2,5.13-4.34,8.32-5.6a3.94,3.94,0,0,1,4.82,1.09c1.39,1.63,1,3.32-.21,4.87a16.4,16.4,0,0,1-2.33,2.66c-27.94,24.32-58.32,44.39-94.59,54.16a79.1,79.1,0,0,1-17.47,2.81c-16.14.66-24.82-11-20-26.47,2.3-7.41,6.83-13.38,12.12-18.69a212.1,212.1,0,0,1,44.17-34.56c7.24-4.19,15-7.16,23.66-5.44s12,8.46,7.65,16.3A40,40,0,0,1,786,681.67c-16.49,12.66-34.73,20.89-55.86,21.4a5.9,5.9,0,0,0-5.65,3.32c-1,1.91-2.14,3.78-3.05,5.75C717.21,721.21,720,728.31,728.11,727.3Zm56-64.88c-17.51,6.54-31.4,16.89-46,28.89C757.51,690.08,781.89,674.84,784.07,662.42Z" transform="translate(-74 -109.48)"/><path class="cls-1" d="M234.78,732.7c-16,0-23.66-10-19.68-25a59.43,59.43,0,0,1,9.91-20c15-20.35,32.83-37.39,56.74-47,8.17-3.26,16.48-4.26,24.38.92,6.48,4.26,7.53,12.93,2.18,17.82-2.44,2.22-5.41,3.67-8.62,1.87s-1.48-4.51-.68-6.83c1.64-4.72-1.26-5.79-4.8-5.69-4.59.13-8.91,1.79-13,3.8-19.35,9.54-35.3,23-47.18,41.16a42.35,42.35,0,0,0-6.51,16.37c-1,6.33,1.52,9.53,7.94,9.47,13-.14,25.18-4.23,37.08-9.09,23.54-9.61,45-22.78,65.21-38.16a48,48,0,0,1,6.83-4.64c1.71-.89,4-1.25,5.45.58s.83,3.78-.47,5.48a18.74,18.74,0,0,1-2.81,3c-29.62,24.24-62.14,43.16-99.06,54C243.36,732.07,238.9,733,234.78,732.7Z" transform="translate(-74 -109.48)"/><path class="cls-1" d="M365.86,683.62l13.35-14.36c3.64-3.91,7.39-7.69,12.1-10.34,6.41-3.61,11.13-3.16,15.83,2.3,11.58,13.45,26.12,15.7,42.43,11.84,1.86-.45,3.9-1.9,5.19.53,1.51,2.84-.72,4.59-2.67,5.77-13.2,7.94-26.86,8-40.73,1.93a30.16,30.16,0,0,1-10.07-7.18c-2.46-2.66-5-2.71-7.89-.81a38,38,0,0,0-4.36,3c-18.84,16.86-37.46,33.94-52.46,54.51a24.61,24.61,0,0,1-2.95,3.69,5.64,5.64,0,0,1-6.56,1.19c-2.47-1.16-3.26-3.43-3-5.92a19.66,19.66,0,0,1,3.49-8.68c16.68-25.83,33.58-51.53,47.35-79.09,2-4,4.73-6.61,9.38-4.16s3.91,6.43,2,10.21c-5,9.89-11.79,18.65-17.57,28C367.64,677.9,366,679.43,365.86,683.62Zm-.84-.32.42.76c.14-.13.4-.29.38-.39a3.58,3.58,0,0,0-.38-.79Z" transform="translate(-74 -109.48)"/><path class="cls-1" d="M481.58,228.76c0-18.48.09-37-.08-55.43,0-3.68.57-5.23,4.81-5.11,11.47.34,23,.21,34.45.06,3,0,4.38.44,4.37,4q-.2,57.16,0,114.34c0,3.34-1.23,3.75-4.06,3.72-11.81-.14-23.63-.19-35.45,0-3.34.06-4.14-1-4.11-4.17C481.65,267,481.58,247.9,481.58,228.76Z" transform="translate(-74 -109.48)"/><path class="cls-1" d="M503,155.2c-16.74,0-27.13-10.4-25.71-25.79.81-8.74,8-16.54,17.48-18.88a35.61,35.61,0,0,1,17.76.15c11.62,3,17.83,12.06,16.77,24.2-.94,10.71-10.27,19.42-21.8,20.31C506,155.3,504.53,155.2,503,155.2Z" transform="translate(-74 -109.48)"/><path class="cls-1" d="M587.05,456.84q0-30.18,0-60.35c0-6.4.43-6.86,6.56-6.87q21.72-.08,43.45,0c6.1,0,6.6.53,6.6,6.89,0,40.59,0,81.17.07,121.75,0,4.78-1.62,6.56-6.18,6.5q-22.21-.3-44.45,0c-4.6.07-6.15-1.77-6.12-6.52C587.13,497.77,587.05,477.3,587.05,456.84Zm50.36.54c0-18.89-.06-37.79.07-56.68,0-3.24-.49-4.57-4-4.49-12.16.25-24.32.21-36.48,0-3.11-.05-3.86.83-3.85,4.09q.18,57,0,113.9c0,3.74,1.25,4.21,4.25,4.17,12-.16,24-.19,36,0,3.25.06,4.13-.87,4.1-4.34C637.33,495.17,637.41,476.27,637.41,457.38Z" transform="translate(-74 -109.48)"/><path class="cls-2" d="M614.94,381.8a37.77,37.77,0,0,1-20.86-5.4c-7.9-4.88-12.65-12-12.65-21.79s4.67-17.36,12.75-21.71c14.94-8,30.22-7.95,44.65,1.25,15.11,9.64,13.64,32.41-2.3,42.23C629.88,380.48,622.66,382,614.94,381.8Zm.37-6.52c7.7.16,14.89-1.51,21-6.76,8.77-7.51,9.1-19.82.81-27.49-10.48-9.69-33.48-9.43-43.71.49-8.13,7.9-7.76,19.87.86,27.07C600.46,373.75,607.62,375.45,615.31,375.28Z" transform="translate(-74 -109.48)"/><path class="cls-3" d="M316.39,683.3l.42-.42a3.54,3.54,0,0,1,.37.79c0,.1-.24.26-.37.39Z" transform="translate(-74 -109.48)"/><path class="cls-2" d="M330.3,447.29c-8.65,0-17.29,0-25.94,0-6.39,0-7.54-1.87-5.39-8.38,2.3-7,6.53-12.29,12.73-15.5,13.68-7.08,27.16-6.74,40.16,2.09,5.29,3.59,8.27,9.06,10.18,15.17,1.42,4.54-.11,6.56-4.8,6.6C348.26,447.35,339.28,447.29,330.3,447.29Zm25.16-6.5a45.16,45.16,0,0,0-2-4.08c-6.42-10.16-20.55-14.27-33.67-9.95a23.88,23.88,0,0,0-13.54,10.95c-1.15,1.92-1.63,3.12,1.32,3.11C323.35,440.77,339.11,440.79,355.46,440.79Z" transform="translate(-74 -109.48)"/><path class="cls-2" d="M157.15,491c-10.67-.2-21.53-4.37-27.67-16.71-6-12-5.72-24.49,1-36.24,7.66-13.39,26.77-18.57,42.76-12,13.61,5.61,21.15,20.38,18.53,36.31C188.76,480.62,177,490.93,157.15,491Zm1.59-6.54c17.53.31,31.41-12.82,26-36.27-4-17.51-28.35-24.59-43-13.14-3.83,3-7.09,6.51-8.41,11.46C127.25,469.24,139.54,484.55,158.74,484.44Z" transform="translate(-74 -109.48)"/><path class="cls-2" d="M916.32,448.25c-8.66,0-17.31.05-26,0-6.12,0-7.35-2-5.2-8.2,2.91-8.39,8.18-14.45,16.14-17.49,12.69-4.85,25.06-4.47,36.62,3.66a26.82,26.82,0,0,1,10,14.07c1.89,5.81.59,7.9-5.17,8C934,448.32,925.14,448.25,916.32,448.25Zm25-6.87c-3.77-10.61-13.74-15.93-27.76-15.27-10.63.51-20.88,8-21.56,15.27Z" transform="translate(-74 -109.48)"/><path class="cls-2" d="M739.88,491c-19.93-.18-33.06-13.66-33.09-34s13.84-34.08,33.85-33.83S773.49,437,773.32,458C773.15,477.76,759.57,491.14,739.88,491Zm-26.69-34.46c-.08,17.22,10,27.82,26.46,27.92,16.87.1,27.6-10.59,27.6-27.48,0-16.61-10.26-26.87-26.89-26.9C723.46,430,713.28,439.93,713.19,456.51Z" transform="translate(-74 -109.48)"/></svg>
