<svg xmlns="http://www.w3.org/2000/svg" width="100%" height="100%" viewBox="0 0 800 1100">
  <defs>
    <style>
      .cls-1 {
        fill: #2b2b2b;
        fill-rule: evenodd;
      }
    </style>
  </defs>
  <path id="thinkdecidecreate" data-name="thinkdecidecreate" class="cls-1" d="M1682.95,2307.67h33.58v-98.23h40.11V2184H1643.01v25.44h39.94v98.23Zm80.4,0h33.58V2257.5h44.88v50.17h33.58V2184h-33.58v46.99h-44.88V2184h-33.58v123.67Zm129.71,0h33.58V2184h-33.58v123.67Zm51.25,0h32.34v-90.28l58.49,90.28h33.22V2184h-32.34v72.97L1988.49,2184h-44.18v123.67Zm222.66,0h40.64l-52.31-74.56,47.01-49.11h-41.88l-41.71,47.7V2184h-32.69v123.67h32.69v-39.04l13.26-13.78Zm45.23,0h34.11V2276.4H2212.2v31.27Zm-558.41,138.82h51.07c36.76,0,65.56-23.67,65.56-62.54,0-38.52-28.62-61.13-66.44-61.13h-50.19v123.67Zm33.23-26.5v-70.85h16.25c21.39,0,32.52,14.13,32.52,35.16,0,23.14-11.13,35.69-33.22,35.69h-15.55Zm94.71,26.5h95.78v-26.33h-63.09v-24.55h48.78v-24.56h-48.78v-21.91h63.09v-26.32h-95.78v123.67Zm164.87,3c31.11,0,52.31-15.54,60.79-39.22l-31.63-11.48c-4.95,14.84-14.13,23.85-29.33,23.85-18.73,0-30.22-14.14-30.22-37.81,0-24.38,11.49-38.34,30.22-38.34,15.55,0,24.38,9.01,28.8,23.85l31.99-10.95c-7.07-23.32-29.34-39.58-60.26-39.58-39.59,0-66.27,27.74-66.27,65.2C1880.69,2423.34,1906.49,2449.49,1946.6,2449.49Zm69.27-3h33.58V2322.82h-33.58v123.67Zm51.25,0h51.07c36.76,0,65.56-23.67,65.56-62.54,0-38.52-28.63-61.13-66.44-61.13h-50.19v123.67Zm33.22-26.5v-70.85h16.26c21.38,0,32.51,14.13,32.51,35.16,0,23.14-11.13,35.69-33.22,35.69h-15.55Zm94.72,26.5h95.78v-26.33h-63.09v-24.55h48.77v-24.56h-48.77v-21.91h63.09v-26.32h-95.78v123.67Zm104.96,0h34.11v-31.27h-34.11v31.27Zm-586.85,141.82c31.1,0,52.31-15.55,60.79-39.22l-31.63-11.49c-4.95,14.85-14.14,23.86-29.34,23.86-18.73,0-30.21-14.14-30.21-37.81,0-24.38,11.48-38.34,30.21-38.34,15.55,0,24.39,9.01,28.81,23.85l31.98-10.95c-7.07-23.33-29.33-39.58-60.26-39.58-39.58,0-66.26,27.74-66.26,65.19C1647.26,2562.16,1673.06,2588.31,1713.17,2588.31Zm69.27-3h33.04v-45.59h19.09c12.72,0,17.67,4.6,19.61,17.14l4.77,28.45h35.35l-5.83-28.62c-3.89-18.73-12.55-25.8-29.52-27.57,16.62-2.47,31.99-13.07,31.99-33.74,0-20.5-16.61-33.75-44.18-33.75h-64.32v123.68Zm33.04-69.44V2487.6h24.57c9.89,0,16.78,4.6,16.78,13.96s-7.06,14.31-16.78,14.31h-24.57Zm89.77,69.44h95.78v-26.33h-63.08v-24.56h48.77v-24.55h-48.77v-21.91h63.08v-26.33h-95.78v123.68Zm193.33,0h36.22l-44.71-123.68h-44.17l-44.71,123.68h34.1l8.49-25.8h46.65Zm-46.48-51.24,6.72-20.32c4.41-13.07,6.53-20.31,8.65-27.38,1.95,7.07,4.07,13.96,8.31,27.21l6.54,20.49H2052.1Zm102.67,51.24h33.58v-98.23h40.11v-25.45H2114.83v25.45h39.94v98.23Zm80.4,0h95.78v-26.33h-63.09v-24.56h48.78v-24.55h-48.78v-21.91h63.09v-26.33h-95.78v123.68Zm104.97,0h34.1v-31.27h-34.1v31.27Zm-687.67,90.18h28.91v-7.97h-19.04v-7.43h14.72v-7.43h-14.72v-6.63h19.04v-7.97h-28.91v37.43Zm42.36,0h14.45l12.8-37.43h-10.93l-5.44,17.75c-1.76,5.88-2.62,8.67-3.58,11.66-0.9-2.94-1.76-5.78-3.52-11.66l-5.38-17.75h-11.31Zm29.34,0h28.91v-7.97h-19.05v-7.43h14.73v-7.43h-14.73v-6.63h19.05v-7.97h-28.91v37.43Zm33.07,0h9.97v-13.8h5.76c3.84,0,5.34,1.39,5.92,5.19l1.44,8.61H1791l-1.76-8.66c-1.17-5.67-3.78-7.81-8.91-8.34,5.02-.75,9.66-3.96,9.66-10.22,0-6.2-5.02-10.21-13.34-10.21h-19.41v37.43Zm9.97-21.01v-8.56h7.42c2.98,0,5.06,1.39,5.06,4.22s-2.13,4.34-5.06,4.34h-7.42Zm35.58,21.01h10.14v-14.65l13.33-22.78h-10.83l-3.04,5.61c-2.02,3.85-3.3,6.26-4.26,8.24-1.02-1.93-2.35-4.44-4.38-8.18l-3.2-5.67h-11.2l13.44,22.78v14.65Zm33.24,0h10.13v-37.43h-10.13v37.43Zm15.79,0h9.81v-29.25l9.12,29.25h8.16l9.18-29.31v29.31h9.87v-37.43h-15.15l-4.7,14.38c-1.54,5.24-2.29,8.02-2.98,10.48-0.64-2.35-1.39-5.24-2.99-10.48l-4.54-14.38h-15.78v37.43Zm77.34,0h10.94l-13.5-37.43h-13.33l-13.5,37.43h10.3l2.56-7.81h14.08Zm-14.03-15.51,2.03-6.15c1.33-3.95,1.97-6.15,2.61-8.29,0.59,2.14,1.23,4.23,2.51,8.24l1.97,6.2h-9.12Zm41.29,16.42c6.88,0,10.24-3.31,11.9-5.77v4.86h8.96V2655.7h-20.17v7.44h10.3c-0.53,2.89-3.2,5.72-8.32,5.72-5.44,0-9.6-4.01-9.6-11.76,0-7.49,3.94-11.88,9.65-11.88,5.02,0,7.42,3.1,8.59,6.69l9.81-3.48c-1.86-5.67-7.25-11.28-18.24-11.28-12.32,0-20.32,8.66-20.32,19.84C1938.98,2669.77,1946.98,2676.4,1956.42,2676.4Zm25.39-.91h28.91v-7.97h-19.04v-7.43h14.72v-7.43h-14.72v-6.63h19.04v-7.97h-28.91v37.43Zm49.72,0h10.13v-29.73h12.11v-7.7h-34.3v7.7h12.06v29.73Zm24.59,0h28.91v-7.97h-19.04v-7.43h14.72v-7.43h-14.72v-6.63h19.04v-7.97h-28.91v37.43Zm33.07,0h29.18v-8.18h-19.04v-29.25h-10.14v37.43Zm31.58,0h29.18v-8.18h-19.04v-29.25h-10.14v37.43Zm46.35,0.91c11.31,0,16.91-5.19,16.91-12.09,0-6.79-5.28-10.69-13.55-11.71l-4.69-.59c-2.83-.37-4.37-1.55-4.37-3.52,0-2.04,1.49-3.86,5.38-3.86a6.917,6.917,0,0,1,7.05,5.3l9.81-2.51c-1.49-5.78-6.88-10.27-16.64-10.27-10.03,0-15.79,5.24-15.79,11.71,0,7,4.32,10.37,12.53,11.44l4.65,0.59c3.68,0.48,5.06,1.93,5.06,3.91,0,2.3-1.76,4.06-6.24,4.06a7.644,7.644,0,0,1-8-6.58l-9.87,2.57C2150.7,2671.32,2156.35,2676.4,2167.12,2676.4Zm54.42-.91h10.93l-13.5-37.43h-13.33l-13.5,37.43h10.3l2.56-7.81h14.08Zm-14.03-15.51,2.02-6.15c1.34-3.95,1.98-6.15,2.62-8.29,0.58,2.14,1.22,4.23,2.5,8.24l1.98,6.2h-9.12Zm50.14,16.42c11.31,0,16.91-5.19,16.91-12.09,0-6.79-5.28-10.69-13.55-11.71l-4.7-.59c-2.82-.37-4.37-1.55-4.37-3.52,0-2.04,1.5-3.86,5.39-3.86a6.905,6.905,0,0,1,7.04,5.3l9.82-2.51c-1.5-5.78-6.89-10.27-16.65-10.27-10.03,0-15.79,5.24-15.79,11.71,0,7,4.32,10.37,12.54,11.44l4.64,0.59c3.68,0.48,5.07,1.93,5.07,3.91,0,2.3-1.76,4.06-6.24,4.06a7.654,7.654,0,0,1-8.01-6.58l-9.86,2.57C2241.22,2671.32,2246.87,2676.4,2257.65,2676.4Zm28.48-.91h10.14v-29.73h12.11v-7.7h-34.3v7.7h12.05v29.73Zm41.82,0.91c13.71,0,20.54-8.61,20.54-19.47s-6.93-19.78-20.54-19.78c-13.54,0-20.48,8.93-20.48,19.78S2314.3,2676.4,2327.95,2676.4Zm0.06-8.07c-6.35,0-9.87-4.71-9.87-11.45,0-6.79,3.52-11.66,9.87-11.66s9.81,4.87,9.81,11.66C2337.82,2663.62,2334.36,2668.33,2328.01,2668.33Zm24.22,7.16h9.97v-13.8h5.76c3.84,0,5.34,1.39,5.92,5.19l1.44,8.61h10.67l-1.76-8.66c-1.17-5.67-3.79-7.81-8.91-8.34,5.02-.75,9.66-3.96,9.66-10.22,0-6.2-5.02-10.21-13.34-10.21h-19.41v37.43Zm9.97-21.01v-8.56h7.42c2.98,0,5.06,1.39,5.06,4.22s-2.13,4.34-5.06,4.34h-7.42Zm35.58,21.01h10.14v-14.65l13.33-22.78h-10.83l-3.04,5.61c-2.02,3.85-3.3,6.26-4.26,8.24-1.02-1.93-2.35-4.44-4.38-8.18l-3.2-5.67h-11.2l13.44,22.78v14.65Zm19.42,0h10.29v-9.46H2417.2v9.46Zm-764.73,41.6h28.91v-7.97h-19.04v-7.43h14.72v-7.44h-14.72v-6.63h19.04v-7.97h-28.91v37.44Zm42.36,0h14.45l12.8-37.44h-10.93l-5.44,17.76c-1.76,5.88-2.62,8.66-3.58,11.66-0.9-2.94-1.76-5.78-3.52-11.66l-5.38-17.76h-11.31Zm29.34,0h28.91v-7.97h-19.05v-7.43h14.73v-7.44h-14.73v-6.63h19.05v-7.97h-28.91v37.44Zm33.07,0h9.97v-13.8h5.76c3.84,0,5.34,1.39,5.92,5.19l1.44,8.61H1791l-1.76-8.67c-1.17-5.66-3.78-7.8-8.91-8.34,5.02-.75,9.66-3.96,9.66-10.21,0-6.21-5.02-10.22-13.34-10.22h-19.41v37.44Zm9.97-21.02v-8.56h7.42c2.98,0,5.06,1.4,5.06,4.23s-2.13,4.33-5.06,4.33h-7.42Zm35.58,21.02h10.14v-14.65l13.33-22.79h-10.83l-3.04,5.62c-2.02,3.85-3.3,6.26-4.26,8.23-1.02-1.92-2.35-4.43-4.38-8.18l-3.2-5.67h-11.2l13.44,22.79v14.65Zm33.24,0H1846v-12.41h7.9c7.84,0,13.81-4.6,13.81-12.51,0-7.81-5.97-12.52-13.87-12.52h-17.81v37.44Zm9.97-20.11v-9.41h6.03c3.36,0,5.55,1.82,5.55,4.65,0,2.94-2.19,4.76-5.55,4.76H1846Zm24.65,20.11h10.13v-37.44h-10.13v37.44Zm11.3,0h11.79l4.11-6.04c1.92-2.73,3.36-4.87,4.53-6.58,0.96,1.5,2.03,3.15,4.27,6.52l4,6.1h12.32l-14.13-19.79,12.48-17.65h-11.57l-3.15,4.6c-1.92,2.89-2.94,4.39-3.79,5.62-0.85-1.29-1.97-2.89-4.27-6.1l-2.93-4.12h-12.27l12.91,17.54Zm42.14,0h28.92v-7.97h-19.05v-7.43h14.73v-7.44h-14.73v-6.63h19.05v-7.97h-28.92v37.44Zm33.08,0h29.18v-8.18H1967.3v-29.26h-10.13v37.44Zm57.34,0.91c9.39,0,15.79-4.71,18.35-11.87l-9.55-3.48c-1.49,4.49-4.27,7.22-8.85,7.22-5.66,0-9.12-4.28-9.12-11.45,0-7.37,3.46-11.6,9.12-11.6,4.69,0,7.36,2.73,8.69,7.22l9.66-3.32c-2.14-7.06-8.86-11.98-18.19-11.98-11.95,0-20.01,8.4-20.01,19.74C1994.61,2710.08,2002.4,2718,2014.51,2718Zm39.79,0c13.71,0,20.54-8.61,20.54-19.47s-6.93-19.79-20.54-19.79c-13.55,0-20.48,8.93-20.48,19.79S2040.65,2718,2054.3,2718Zm0.06-8.08c-6.35,0-9.87-4.7-9.87-11.44,0-6.79,3.52-11.66,9.87-11.66s9.81,4.87,9.81,11.66C2064.17,2705.22,2060.7,2709.92,2054.36,2709.92Zm41.18,8.08c10.67,0,17.39-5.56,17.39-16.15v-22.2h-10.08v20.91c0,5.83-2.14,9.04-7.31,9.04-4.96,0-7.31-3.05-7.31-9.04v-20.91h-10.08v22.2C2078.15,2712.28,2084.55,2718,2095.54,2718Zm22.67-.91h9.76v-27.33l17.66,27.33h10.02v-37.44h-9.76v22.09l-14.35-22.09h-13.33v37.44Zm51.9,0h10.14v-29.74h12.1v-7.7h-34.29v7.7h12.05v29.74Zm38.78,0.91c11.31,0,16.91-5.19,16.91-12.09,0-6.79-5.28-10.69-13.55-11.71l-4.69-.59c-2.83-.37-4.38-1.55-4.38-3.53,0-2.03,1.5-3.85,5.39-3.85a6.9,6.9,0,0,1,7.04,5.3l9.82-2.52c-1.5-5.77-6.88-10.27-16.64-10.27-10.03,0-15.79,5.24-15.79,11.72,0,7,4.32,10.37,12.53,11.44l4.64,0.59c3.68,0.48,5.07,1.92,5.07,3.9,0,2.3-1.76,4.07-6.24,4.07a7.652,7.652,0,0,1-8-6.58l-9.87,2.57C2192.46,2712.92,2198.12,2718,2208.89,2718Zm19.58-.91h10.29v-9.47h-10.29v9.47Z" transform="translate(-1643 -2184)"/>
</svg>
